<svg xmlns="http://www.w3.org/2000/svg" xmlns:xlink="http://www.w3.org/1999/xlink" width="300" zoomAndPan="magnify" viewBox="0 0 224.87999 225" height="300" preserveAspectRatio="xMidYMid meet" version="1.0"><defs><clipPath id="b6ba85f35a"><path d="M 13.027344 140 L 104 140 L 104 184 L 13.027344 184 Z M 13.027344 140 " clip-rule="nonzero"/></clipPath><clipPath id="5b259bdbab"><path d="M 121 140 L 211.671875 140 L 211.671875 184 L 121 184 Z M 121 140 " clip-rule="nonzero"/></clipPath><clipPath id="7f1dcb7828"><path d="M 13.027344 90 L 68 90 L 68 135 L 13.027344 135 Z M 13.027344 90 " clip-rule="nonzero"/></clipPath><clipPath id="c0e9d5080d"><path d="M 13.027344 41.046875 L 104 41.046875 L 104 85 L 13.027344 85 Z M 13.027344 41.046875 " clip-rule="nonzero"/></clipPath><clipPath id="c013db225b"><path d="M 121 41.046875 L 211.671875 41.046875 L 211.671875 85 L 121 85 Z M 121 41.046875 " clip-rule="nonzero"/></clipPath><clipPath id="c30eb95fca"><path d="M 145 90 L 211.671875 90 L 211.671875 135 L 145 135 Z M 145 90 " clip-rule="nonzero"/></clipPath></defs><g clip-path="url(#b6ba85f35a)"><path fill="#3963ac" d="M 22.355469 183.941406 L 93.800781 183.941406 C 98.925781 183.941406 103.121094 179.746094 103.121094 174.621094 L 103.121094 154.429688 L 76.871094 154.429688 C 67.242188 154.429688 58.855469 148.683594 54.660156 140.453125 L 22.355469 140.453125 C 17.226562 140.453125 13.035156 144.644531 13.035156 149.769531 L 13.035156 174.621094 C 13.035156 179.746094 17.226562 183.941406 22.355469 183.941406 Z M 87.585938 159.089844 C 89.296875 159.089844 90.695312 160.488281 90.695312 162.195312 C 90.695312 163.90625 89.296875 165.300781 87.585938 165.300781 C 85.878906 165.300781 84.480469 163.90625 84.480469 162.195312 C 84.480469 160.488281 85.878906 159.089844 87.585938 159.089844 Z M 75.160156 159.089844 C 76.871094 159.089844 78.269531 160.488281 78.269531 162.195312 C 78.269531 163.90625 76.871094 165.300781 75.160156 165.300781 C 73.453125 165.300781 72.054688 163.90625 72.054688 162.195312 C 72.054688 160.488281 73.453125 159.089844 75.160156 159.089844 Z M 28.566406 159.089844 L 56.523438 159.089844 C 58.230469 159.089844 59.628906 160.488281 59.628906 162.195312 C 59.628906 163.90625 58.230469 165.300781 56.523438 165.300781 L 28.566406 165.300781 C 26.859375 165.300781 25.460938 163.90625 25.460938 162.195312 C 25.460938 160.488281 26.859375 159.089844 28.566406 159.089844 Z M 28.566406 159.089844 " fill-opacity="1" fill-rule="nonzero"/></g><g clip-path="url(#5b259bdbab)"><path fill="#3963ac" d="M 202.523438 140.453125 L 170.214844 140.453125 C 169.90625 140.917969 169.75 141.382812 169.441406 141.847656 C 169.441406 142.003906 169.285156 142.160156 169.128906 142.316406 C 168.820312 142.78125 168.664062 143.246094 168.351562 143.558594 C 168.199219 143.714844 168.042969 143.867188 168.042969 144.023438 C 167.421875 144.957031 166.644531 145.730469 165.867188 146.507812 C 163.539062 148.839844 160.898438 150.859375 157.792969 152.253906 C 154.683594 153.652344 151.421875 154.273438 148.007812 154.273438 L 121.757812 154.273438 L 121.757812 174.464844 C 121.757812 179.589844 125.949219 183.785156 131.078125 183.785156 L 202.523438 183.785156 C 207.648438 183.785156 211.839844 179.589844 211.839844 174.464844 L 211.839844 149.769531 C 211.839844 144.644531 207.648438 140.453125 202.523438 140.453125 Z M 137.289062 165.300781 C 135.582031 165.300781 134.183594 163.90625 134.183594 162.195312 C 134.183594 160.488281 135.582031 159.089844 137.289062 159.089844 C 138.996094 159.089844 140.394531 160.488281 140.394531 162.195312 C 140.394531 163.90625 138.996094 165.300781 137.289062 165.300781 Z M 149.714844 165.300781 C 148.007812 165.300781 146.609375 163.90625 146.609375 162.195312 C 146.609375 160.488281 148.007812 159.089844 149.714844 159.089844 C 151.421875 159.089844 152.820312 160.488281 152.820312 162.195312 C 152.820312 163.90625 151.421875 165.300781 149.714844 165.300781 Z M 196.308594 165.300781 L 168.351562 165.300781 C 166.644531 165.300781 165.246094 163.90625 165.246094 162.195312 C 165.246094 160.488281 166.644531 159.089844 168.351562 159.089844 L 196.308594 159.089844 C 198.019531 159.089844 199.417969 160.488281 199.417969 162.195312 C 199.417969 163.90625 198.019531 165.300781 196.308594 165.300781 Z M 196.308594 165.300781 " fill-opacity="1" fill-rule="nonzero"/></g><g clip-path="url(#7f1dcb7828)"><path fill="#3963ac" d="M 22.355469 134.238281 L 52.484375 134.238281 C 52.332031 133.308594 52.175781 132.53125 52.019531 131.597656 C 51.863281 130.667969 51.863281 129.734375 51.863281 128.800781 C 51.863281 123.988281 53.105469 119.484375 55.28125 115.601562 L 28.566406 115.601562 C 26.859375 115.601562 25.460938 114.203125 25.460938 112.496094 C 25.460938 110.785156 26.859375 109.386719 28.566406 109.386719 L 60.40625 109.386719 C 61.648438 108.144531 63.203125 107.214844 64.753906 106.28125 C 64.753906 105.503906 64.601562 104.574219 64.601562 103.796875 C 64.601562 99.136719 65.53125 94.789062 67.242188 90.75 L 22.355469 90.75 C 17.226562 90.75 13.035156 94.941406 13.035156 100.070312 L 13.035156 124.917969 C 13.035156 130.046875 17.226562 134.238281 22.355469 134.238281 Z M 22.355469 134.238281 " fill-opacity="1" fill-rule="nonzero"/></g><g clip-path="url(#c0e9d5080d)"><path fill="#3963ac" d="M 22.355469 84.535156 L 70.503906 84.535156 C 71.125 83.605469 71.898438 82.671875 72.675781 81.742188 C 72.988281 81.429688 73.144531 81.273438 73.453125 80.964844 C 73.765625 80.652344 74.074219 80.1875 74.386719 79.878906 C 74.851562 79.410156 75.472656 78.789062 76.09375 78.324219 C 78.890625 75.839844 82.152344 73.976562 85.566406 72.578125 C 89.140625 71.179688 92.867188 70.558594 96.75 70.558594 L 96.90625 70.558594 C 97.992188 70.558594 98.925781 70.558594 100.011719 70.714844 C 100.945312 70.867188 102.03125 71.023438 102.964844 71.179688 C 102.964844 71.179688 103.121094 71.179688 103.121094 71.179688 L 103.121094 50.367188 C 103.121094 45.242188 98.925781 41.046875 93.800781 41.046875 L 22.355469 41.046875 C 17.226562 41.046875 13.035156 45.242188 13.035156 50.367188 L 13.035156 75.21875 C 13.035156 80.34375 17.226562 84.535156 22.355469 84.535156 Z M 87.585938 59.6875 C 89.296875 59.6875 90.695312 61.085938 90.695312 62.792969 C 90.695312 64.5 89.296875 65.898438 87.585938 65.898438 C 85.878906 65.898438 84.480469 64.5 84.480469 62.792969 C 84.480469 61.085938 85.878906 59.6875 87.585938 59.6875 Z M 75.160156 59.6875 C 76.871094 59.6875 78.269531 61.085938 78.269531 62.792969 C 78.269531 64.5 76.871094 65.898438 75.160156 65.898438 C 73.453125 65.898438 72.054688 64.5 72.054688 62.792969 C 72.054688 61.085938 73.453125 59.6875 75.160156 59.6875 Z M 28.566406 59.6875 L 56.523438 59.6875 C 58.230469 59.6875 59.628906 61.085938 59.628906 62.792969 C 59.628906 64.5 58.230469 65.898438 56.523438 65.898438 L 28.566406 65.898438 C 26.859375 65.898438 25.460938 64.5 25.460938 62.792969 C 25.460938 61.085938 26.859375 59.6875 28.566406 59.6875 Z M 28.566406 59.6875 " fill-opacity="1" fill-rule="nonzero"/></g><g clip-path="url(#c013db225b)"><path fill="#3963ac" d="M 202.523438 41.046875 L 131.078125 41.046875 C 125.949219 41.046875 121.757812 45.242188 121.757812 50.367188 L 121.757812 75.21875 C 121.757812 78.011719 123 80.5 125.019531 82.207031 C 125.175781 82.207031 125.484375 82.207031 125.640625 82.207031 C 126.570312 82.207031 127.347656 82.207031 128.28125 82.363281 C 128.589844 82.363281 128.902344 82.363281 129.210938 82.519531 C 129.832031 82.519531 130.300781 82.671875 130.921875 82.828125 C 131.230469 82.828125 131.699219 82.984375 132.007812 83.140625 C 132.472656 83.292969 132.941406 83.292969 133.40625 83.449219 C 133.871094 83.605469 134.183594 83.605469 134.648438 83.761719 C 134.960938 83.914062 135.425781 84.070312 135.734375 84.226562 C 136.046875 84.382812 136.511719 84.382812 136.824219 84.691406 L 202.523438 84.691406 C 207.648438 84.691406 211.839844 80.5 211.839844 75.375 L 211.839844 50.367188 C 211.839844 45.242188 207.648438 41.046875 202.523438 41.046875 Z M 137.289062 65.898438 C 135.582031 65.898438 134.183594 64.5 134.183594 62.792969 C 134.183594 61.085938 135.582031 59.6875 137.289062 59.6875 C 138.996094 59.6875 140.394531 61.085938 140.394531 62.792969 C 140.394531 64.5 138.996094 65.898438 137.289062 65.898438 Z M 149.714844 65.898438 C 148.007812 65.898438 146.609375 64.5 146.609375 62.792969 C 146.609375 61.085938 148.007812 59.6875 149.714844 59.6875 C 151.421875 59.6875 152.820312 61.085938 152.820312 62.792969 C 152.820312 64.5 151.421875 65.898438 149.714844 65.898438 Z M 196.308594 65.898438 L 168.351562 65.898438 C 166.644531 65.898438 165.246094 64.5 165.246094 62.792969 C 165.246094 61.085938 166.644531 59.6875 168.351562 59.6875 L 196.308594 59.6875 C 198.019531 59.6875 199.417969 61.085938 199.417969 62.792969 C 199.417969 64.5 198.019531 65.898438 196.308594 65.898438 Z M 196.308594 65.898438 " fill-opacity="1" fill-rule="nonzero"/></g><g clip-path="url(#c30eb95fca)"><path fill="#3963ac" d="M 202.523438 90.75 L 145.519531 90.75 C 145.519531 90.75 145.519531 90.75 145.519531 90.90625 C 148.9375 94.320312 151.421875 98.671875 152.664062 103.484375 C 157.167969 104.417969 161.207031 106.4375 164.46875 109.386719 L 196.308594 109.386719 C 198.019531 109.386719 199.417969 110.785156 199.417969 112.496094 C 199.417969 114.203125 198.019531 115.601562 196.308594 115.601562 L 169.441406 115.601562 C 171.613281 119.484375 173.011719 123.988281 173.011719 128.800781 C 173.011719 130.667969 172.855469 132.53125 172.390625 134.238281 L 202.523438 134.238281 C 207.648438 134.238281 211.839844 130.046875 211.839844 124.917969 L 211.839844 100.070312 C 211.839844 94.941406 207.648438 90.75 202.523438 90.75 Z M 202.523438 90.75 " fill-opacity="1" fill-rule="nonzero"/></g><path fill="#3963ac" d="M 58.078125 128.800781 C 58.078125 139.519531 66.464844 148.21875 76.871094 148.21875 L 148.007812 148.21875 C 158.414062 148.21875 166.800781 139.519531 166.800781 128.800781 C 166.800781 118.085938 158.414062 109.386719 148.007812 109.386719 L 147.386719 109.386719 C 146.453125 97.738281 136.980469 88.574219 125.484375 88.574219 C 123.15625 88.574219 120.824219 88.886719 118.652344 89.664062 C 113.992188 81.898438 105.605469 76.925781 96.597656 76.925781 C 82.308594 76.925781 70.65625 89.042969 70.65625 103.953125 C 70.65625 106.125 70.96875 108.144531 71.433594 110.320312 C 63.667969 112.496094 58.078125 119.949219 58.078125 128.800781 Z M 75.160156 115.601562 C 77.335938 115.289062 79.199219 113.738281 78.269531 111.25 C 77.335938 108.765625 76.871094 106.28125 76.871094 103.640625 C 77.027344 92.304688 85.878906 82.984375 96.75 82.984375 C 104.363281 82.984375 111.351562 87.644531 114.613281 94.789062 C 115.390625 96.339844 117.253906 97.117188 118.804688 96.339844 C 120.980469 95.253906 123.3125 94.632812 125.640625 94.632812 C 134.339844 94.632812 141.328125 102.089844 141.328125 111.097656 C 141.328125 112.496094 141.171875 114.046875 140.550781 115.289062 C 139.152344 119.019531 144.898438 121.347656 146.296875 117.621094 C 146.609375 116.84375 146.761719 116.066406 146.917969 115.445312 C 149.558594 115.445312 152.199219 115.910156 154.375 117.464844 C 156.082031 118.550781 157.480469 120.105469 158.566406 121.8125 C 159.808594 123.988281 160.429688 126.316406 160.429688 128.800781 C 160.429688 136.101562 154.839844 142.003906 147.851562 142.003906 L 76.871094 142.003906 C 69.882812 142.003906 64.289062 136.101562 64.289062 128.800781 C 64.289062 121.96875 68.949219 116.53125 75.160156 115.601562 Z M 75.160156 115.601562 " fill-opacity="1" fill-rule="nonzero"/><path fill="#3963ac" d="M 89.140625 106.28125 C 90.847656 106.28125 92.246094 104.882812 92.246094 103.175781 C 92.246094 99.757812 95.042969 96.960938 98.460938 96.960938 C 100.167969 96.960938 101.566406 95.566406 101.566406 93.855469 C 101.566406 92.148438 100.167969 90.75 98.460938 90.75 C 91.625 90.75 86.035156 96.339844 86.035156 103.175781 C 86.035156 104.882812 87.433594 106.28125 89.140625 106.28125 Z M 89.140625 106.28125 " fill-opacity="1" fill-rule="nonzero"/></svg>