<svg xmlns="http://www.w3.org/2000/svg" xmlns:xlink="http://www.w3.org/1999/xlink" width="300" zoomAndPan="magnify" viewBox="0 0 224.87999 225" height="300" preserveAspectRatio="xMidYMid meet" version="1.0"><defs><clipPath id="3c831a9251"><path d="M 16 28.097656 L 104 28.097656 L 104 119 L 16 119 Z M 16 28.097656 " clip-rule="nonzero"/></clipPath><clipPath id="841711dd2e"><path d="M 102 72 L 208.628906 72 L 208.628906 196.757812 L 102 196.757812 Z M 102 72 " clip-rule="nonzero"/></clipPath></defs><g clip-path="url(#3c831a9251)"><path fill="#3963ac" d="M 19.4375 118.507812 C 19.886719 118.507812 20.1875 118.507812 20.636719 118.207031 C 38.367188 110.84375 80.285156 89.058594 97.261719 43.234375 L 97.5625 44.738281 C 97.863281 46.089844 99.066406 46.988281 100.417969 46.988281 C 100.570312 46.988281 100.871094 46.988281 101.167969 46.839844 C 102.824219 46.539062 103.722656 44.886719 103.421875 43.234375 L 100.570312 30.761719 C 100.269531 29.710938 99.515625 28.960938 98.464844 28.511719 C 97.414062 28.210938 96.363281 28.511719 95.609375 29.109375 L 85.996094 37.976562 C 84.792969 39.027344 84.644531 40.980469 85.84375 42.183594 C 86.894531 43.382812 88.847656 43.535156 90.050781 42.332031 L 91.703125 40.832031 C 75.628906 84.703125 35.363281 105.4375 18.234375 112.496094 C 16.730469 113.097656 15.980469 114.902344 16.582031 116.402344 C 17.183594 117.90625 18.234375 118.507812 19.4375 118.507812 Z M 19.4375 118.507812 " fill-opacity="1" fill-rule="nonzero"/></g><g clip-path="url(#841711dd2e)"><path fill="#3963ac" d="M 194.921875 140.292969 C 192.070312 137.589844 187.863281 137.589844 185.007812 140.144531 L 180.5 135.484375 C 184.257812 129.175781 186.359375 121.964844 186.359375 114.152344 C 186.359375 91.011719 167.578125 72.082031 144.289062 72.082031 C 121.003906 72.082031 102.222656 90.863281 102.222656 114.152344 C 102.222656 137.289062 121.003906 156.21875 144.289062 156.21875 C 152.855469 156.21875 160.816406 153.664062 167.578125 149.15625 L 171.9375 153.515625 C 169.230469 156.519531 169.230469 161.027344 172.085938 164.03125 L 203.789062 195.882812 C 204.390625 196.484375 205.140625 196.785156 205.890625 196.785156 C 206.644531 196.785156 208.296875 195.882812 208.898438 195.285156 L 208.898438 153.214844 Z M 144.140625 150.210938 C 124.308594 150.210938 108.082031 133.984375 108.082031 114.152344 C 108.082031 94.316406 124.308594 78.089844 144.140625 78.089844 C 163.972656 78.089844 180.199219 94.316406 180.199219 114.152344 C 180.199219 133.984375 163.972656 150.210938 144.140625 150.210938 Z M 175.84375 149.308594 L 172.085938 145.550781 C 173.738281 144.050781 175.390625 142.398438 176.742188 140.59375 L 180.5 144.5 Z M 175.84375 149.308594 " fill-opacity="1" fill-rule="nonzero"/></g><path fill="#3963ac" d="M 136.628906 49.695312 C 136.628906 46.390625 133.921875 43.683594 130.617188 43.683594 L 118.597656 43.683594 C 115.292969 43.683594 112.589844 46.390625 112.589844 49.695312 L 112.589844 77.941406 C 119.199219 72.082031 127.464844 68.175781 136.628906 66.671875 Z M 136.628906 49.695312 " fill-opacity="1" fill-rule="nonzero"/><path fill="#3963ac" d="M 139.632812 172.746094 L 136.628906 172.746094 L 136.628906 161.777344 C 127.464844 160.277344 119.199219 156.371094 112.589844 150.511719 L 112.589844 172.746094 L 106.578125 172.746094 L 106.578125 144.199219 C 99.96875 135.9375 96.0625 125.570312 96.0625 114.300781 C 96.0625 103.03125 99.96875 92.515625 106.578125 84.402344 L 106.578125 79.894531 C 106.578125 76.589844 103.875 73.882812 100.570312 73.882812 L 88.550781 73.882812 C 85.242188 73.882812 82.539062 76.589844 82.539062 79.894531 L 82.539062 172.746094 L 76.53125 172.746094 L 76.53125 109.644531 C 76.53125 106.335938 73.824219 103.632812 70.519531 103.632812 L 58.5 103.632812 C 55.195312 103.632812 52.488281 106.335938 52.488281 109.644531 L 52.488281 172.746094 L 46.480469 172.746094 L 46.480469 139.691406 C 46.480469 136.386719 43.777344 133.683594 40.46875 133.683594 L 28.449219 133.683594 C 25.144531 133.683594 22.441406 136.386719 22.441406 139.691406 L 22.441406 172.746094 L 19.4375 172.746094 C 17.78125 172.746094 16.429688 174.097656 16.429688 175.75 C 16.429688 177.402344 17.78125 178.757812 19.4375 178.757812 L 139.632812 178.757812 C 141.285156 178.757812 142.636719 177.402344 142.636719 175.75 C 142.636719 173.949219 141.285156 172.746094 139.632812 172.746094 Z M 139.632812 172.746094 " fill-opacity="1" fill-rule="nonzero"/></svg>