<svg xmlns="http://www.w3.org/2000/svg" xmlns:xlink="http://www.w3.org/1999/xlink" width="300" zoomAndPan="magnify" viewBox="0 0 224.87999 225" height="300" preserveAspectRatio="xMidYMid meet" version="1.0"><defs><clipPath id="95c9f2b629"><path d="M 25.625 18.519531 L 164 18.519531 L 164 206.667969 L 25.625 206.667969 Z M 25.625 18.519531 " clip-rule="nonzero"/></clipPath><clipPath id="5c0cd84eeb"><path d="M 120 47 L 199.53125 47 L 199.53125 178 L 120 178 Z M 120 47 " clip-rule="nonzero"/></clipPath></defs><g clip-path="url(#95c9f2b629)"><path fill="#3963ac" d="M 85.191406 197.699219 C 85.191406 196.210938 86.394531 195.003906 87.886719 195.003906 L 101.203125 195.003906 C 102.6875 195.003906 103.894531 196.210938 103.894531 197.699219 L 103.894531 198.671875 C 103.894531 200.15625 102.6875 201.363281 101.203125 201.363281 L 87.886719 201.363281 C 86.394531 201.363281 85.191406 200.15625 85.191406 198.671875 Z M 163.300781 41.800781 L 163.300781 27.71875 C 163.300781 22.652344 159.175781 18.523438 154.109375 18.523438 L 34.976562 18.523438 C 29.914062 18.523438 25.785156 22.652344 25.785156 27.71875 L 25.785156 197.277344 C 25.785156 202.335938 29.914062 206.464844 34.976562 206.464844 L 154.109375 206.464844 C 159.175781 206.464844 163.300781 202.335938 163.300781 197.277344 L 163.300781 183.1875 L 156.785156 183.1875 L 156.785156 189.90625 L 32.304688 189.90625 L 32.304688 35.085938 L 156.785156 35.085938 L 156.785156 41.800781 L 163.300781 41.800781 " fill-opacity="1" fill-rule="nonzero"/></g><g clip-path="url(#5c0cd84eeb)"><path fill="#3963ac" d="M 193.003906 161.085938 L 126.914062 161.085938 L 126.914062 63.910156 L 193.003906 63.910156 Z M 168.636719 169.699219 C 168.636719 171.160156 167.519531 172.34375 166.136719 172.34375 L 153.78125 172.34375 C 152.398438 172.34375 151.277344 171.160156 151.277344 169.699219 L 151.277344 168.746094 C 151.277344 167.28125 152.398438 166.09375 153.78125 166.09375 L 166.136719 166.09375 C 167.519531 166.09375 168.636719 167.28125 168.636719 168.746094 Z M 153.242188 54.28125 L 166.675781 54.28125 C 167.453125 54.28125 168.082031 54.949219 168.082031 55.773438 C 168.082031 56.589844 167.453125 57.257812 166.675781 57.257812 L 153.242188 57.257812 C 152.46875 57.257812 151.839844 56.589844 151.839844 55.773438 C 151.839844 54.949219 152.46875 54.28125 153.242188 54.28125 Z M 190.519531 47.628906 L 129.398438 47.628906 C 124.695312 47.628906 120.863281 51.6875 120.863281 56.664062 L 120.863281 168.324219 C 120.863281 173.300781 124.695312 177.359375 129.398438 177.359375 L 190.519531 177.359375 C 195.222656 177.359375 199.054688 173.300781 199.054688 168.324219 L 199.054688 56.664062 C 199.054688 51.6875 195.222656 47.628906 190.519531 47.628906 " fill-opacity="1" fill-rule="nonzero"/></g></svg>