<svg xmlns="http://www.w3.org/2000/svg" xmlns:xlink="http://www.w3.org/1999/xlink" width="300" zoomAndPan="magnify" viewBox="0 0 224.87999 225" height="300" preserveAspectRatio="xMidYMid meet" version="1.0"><defs><clipPath id="e17d9b6ac7"><path d="M 32.378906 147 L 70 147 L 70 199 L 32.378906 199 Z M 32.378906 147 " clip-rule="nonzero"/></clipPath><clipPath id="8025c2c6c3"><path d="M 76 181 L 132 181 L 132 209.75 L 76 209.75 Z M 76 181 " clip-rule="nonzero"/></clipPath><clipPath id="091008f967"><path d="M 45 15.601562 L 129 15.601562 L 129 130 L 45 130 Z M 45 15.601562 " clip-rule="nonzero"/></clipPath></defs><path fill="#3963ac" d="M 171.726562 144.695312 C 169.824219 146.667969 160.378906 156.902344 160.378906 163.683594 C 160.9375 181.964844 187.496094 181.964844 188.054688 163.683594 C 188.054688 156.902344 178.609375 146.667969 176.707031 144.695312 C 175.425781 143.3125 173.003906 143.3125 171.726562 144.695312 Z M 171.726562 144.695312 " fill-opacity="1" fill-rule="nonzero"/><g clip-path="url(#e17d9b6ac7)"><path fill="#3963ac" d="M 63.511719 185.125 L 63.511719 169.90625 C 63.511719 157.320312 53.273438 147.082031 40.679688 147.082031 C 40.679688 147.082031 35.835938 147.082031 35.835938 147.082031 C 33.933594 147.082031 32.378906 148.640625 32.378906 150.542969 L 32.378906 155.382812 C 32.335938 168.507812 43.539062 178.910156 56.59375 178.207031 C 56.59375 178.207031 56.59375 185.125 56.59375 185.125 C 56.59375 192.421875 62.199219 198.371094 69.359375 198.890625 L 69.359375 191.9375 C 66.039062 191.417969 63.511719 188.546875 63.511719 185.125 Z M 63.511719 185.125 " fill-opacity="1" fill-rule="nonzero"/></g><g clip-path="url(#8025c2c6c3)"><path fill="#3963ac" d="M 83.195312 181.667969 L 124.710938 181.667969 C 128.53125 181.667969 131.628906 184.765625 131.628906 188.585938 L 131.628906 202.417969 C 131.628906 206.234375 128.53125 209.332031 124.714844 209.332031 L 83.199219 209.332031 C 79.378906 209.332031 76.277344 206.234375 76.277344 202.414062 L 76.277344 188.582031 C 76.277344 184.765625 79.378906 181.667969 83.195312 181.667969 Z M 83.195312 181.667969 " fill-opacity="1" fill-rule="nonzero"/></g><path fill="#3963ac" d="M 124.710938 133.976562 C 112.421875 142.183594 95.472656 142.203125 83.199219 133.976562 C 83.199219 133.976562 83.199219 174.75 83.199219 174.75 L 124.710938 174.75 Z M 124.710938 133.976562 " fill-opacity="1" fill-rule="nonzero"/><g clip-path="url(#091008f967)"><path fill="#3963ac" d="M 48.601562 129.789062 C 50.503906 129.789062 52.0625 128.234375 52.0625 126.332031 C 52.316406 120.949219 51.050781 110.984375 53.894531 106.203125 C 53.894531 106.203125 59.878906 94.203125 59.878906 94.203125 C 61.542969 90.882812 62.441406 87.113281 62.441406 83.378906 L 62.441406 46.789062 C 62.441406 41.359375 64.273438 36.347656 67.285156 32.335938 L 83.199219 48.207031 L 83.199219 70.273438 C 95.46875 62.066406 112.417969 62.050781 124.710938 70.273438 C 124.710938 70.273438 124.710938 46.789062 124.710938 46.789062 C 124.710938 44.886719 123.152344 43.332031 121.25 43.332031 L 107.414062 43.332031 L 107.414062 22.582031 L 124.710938 22.582031 C 129.214844 22.53125 129.28125 15.738281 124.710938 15.664062 C 124.710938 15.664062 86.65625 15.664062 86.65625 15.664062 C 69.496094 15.664062 55.523438 29.636719 55.523438 46.789062 L 55.523438 83.378906 C 55.949219 88.964844 49.84375 98.203125 47.703125 103.128906 C 44.109375 109.1875 45.34375 119.597656 45.144531 126.332031 C 45.144531 128.234375 46.699219 129.789062 48.601562 129.789062 Z M 86.65625 22.582031 L 100.496094 22.582031 L 100.496094 43.332031 L 88.074219 43.332031 L 72.195312 27.421875 C 76.210938 24.414062 81.226562 22.582031 86.65625 22.582031 Z M 86.65625 22.582031 " fill-opacity="1" fill-rule="nonzero"/></g><path fill="#3963ac" d="M 188.054688 126.332031 L 188.054688 115.957031 C 188.054688 100.707031 175.632812 88.289062 160.378906 88.289062 L 139.378906 88.289062 C 142.917969 97.195312 142.882812 107.082031 139.378906 115.957031 C 139.378906 115.957031 160.378906 115.957031 160.378906 115.957031 L 160.378906 126.332031 C 158.476562 126.332031 156.917969 127.890625 156.917969 129.789062 C 156.917969 131.691406 158.476562 133.25 160.378906 133.25 L 188.054688 133.25 C 192.585938 133.160156 192.609375 126.425781 188.054688 126.332031 Z M 188.054688 126.332031 " fill-opacity="1" fill-rule="nonzero"/><path fill="#3963ac" d="M 131.835938 88.289062 C 123.527344 70.242188 97.578125 65.226562 83.195312 78.953125 C 62.03125 97.695312 75.585938 133.316406 103.953125 133.25 C 126.515625 133.742188 142.339844 108.191406 131.835938 88.289062 Z M 113.746094 104.027344 L 106.824219 114.402344 C 104.316406 118.1875 98.585938 114.328125 101.082031 110.597656 C 101.082031 110.597656 104.402344 105.582031 104.402344 105.582031 L 97.035156 105.582031 C 94.378906 105.679688 92.570312 102.375 94.164062 100.222656 C 94.164062 100.222656 101.082031 89.847656 101.082031 89.847656 C 103.609375 86.101562 109.339844 89.816406 106.824219 93.652344 C 106.824219 93.652344 103.503906 98.664062 103.503906 98.664062 L 110.875 98.664062 C 113.53125 98.566406 115.335938 101.875 113.746094 104.027344 Z M 113.746094 104.027344 " fill-opacity="1" fill-rule="nonzero"/></svg>