<svg xmlns="http://www.w3.org/2000/svg" xmlns:xlink="http://www.w3.org/1999/xlink" width="300" zoomAndPan="magnify" viewBox="0 0 224.87999 225" height="300" preserveAspectRatio="xMidYMid meet" version="1.0"><defs><clipPath id="f5a4a3cfe5"><path d="M 15.828125 17.777344 L 42 17.777344 L 42 105 L 15.828125 105 Z M 15.828125 17.777344 " clip-rule="nonzero"/></clipPath></defs><path fill="#3963ac" d="M 25.460938 131.09375 C 21.117188 131.101562 21 137.8125 25.460938 137.828125 C 29.703125 137.828125 31.65625 139.714844 34.316406 142.308594 C 37.246094 145.101562 40.917969 148.636719 47.886719 148.636719 C 54.824219 148.636719 58.496094 145.101562 61.425781 142.308594 C 64.117188 139.714844 66.039062 137.828125 70.3125 137.828125 C 74.554688 137.828125 76.476562 139.714844 79.167969 142.308594 C 82.097656 145.101562 85.734375 148.636719 92.707031 148.636719 C 99.675781 148.636719 103.3125 145.101562 106.242188 142.273438 C 108.9375 139.714844 110.855469 137.828125 115.097656 137.828125 C 119.339844 137.828125 121.292969 139.714844 123.953125 142.273438 C 131.265625 150.710938 143.726562 150.71875 151.027344 142.273438 C 157.625 135.160156 164.441406 137.125 170.390625 143.789062 C 177.621094 151.164062 189.722656 149.597656 195.84375 142.273438 C 198.503906 139.714844 200.457031 137.828125 204.703125 137.828125 C 209.058594 137.765625 209.175781 131.183594 204.703125 131.09375 C 197.730469 131.09375 194.09375 134.628906 191.164062 137.425781 C 188.472656 140.019531 186.550781 141.902344 182.308594 141.902344 C 178.09375 141.910156 176.058594 139.996094 173.417969 137.425781 C 169.667969 133.835938 166.167969 131.109375 159.917969 131.09375 C 152.945312 131.09375 149.308594 134.628906 146.378906 137.425781 C 143.753906 139.949219 141.835938 141.804688 137.828125 141.871094 C 133.539062 142.105469 131.320312 140.011719 128.636719 137.425781 C 125.707031 134.628906 122.070312 131.09375 115.097656 131.09375 C 108.160156 131.09375 104.492188 134.628906 101.5625 137.425781 C 98.902344 140.019531 96.949219 141.902344 92.707031 141.902344 C 88.464844 141.902344 86.542969 140.019531 83.851562 137.425781 C 80.921875 134.628906 77.25 131.09375 70.3125 131.09375 C 63.34375 131.09375 59.671875 134.628906 56.742188 137.425781 C 54.082031 140.019531 52.128906 141.902344 47.886719 141.902344 C 43.609375 141.902344 41.691406 140.019531 38.996094 137.425781 C 36.066406 134.628906 32.398438 131.09375 25.460938 131.09375 Z M 25.460938 131.09375 " fill-opacity="1" fill-rule="nonzero"/><path fill="#3963ac" d="M 170.082031 166.113281 C 166.511719 171.550781 162.507812 171.550781 158.9375 166.113281 C 153.191406 157.171875 142.800781 157.207031 137.089844 166.113281 C 135.046875 168.789062 133.871094 170.1875 131.523438 170.1875 C 129.179688 170.1875 128.003906 168.789062 125.964844 166.117188 C 123.800781 163.277344 120.835938 159.394531 115.050781 159.394531 C 109.265625 159.394531 106.296875 163.277344 104.132812 166.117188 C 102.089844 168.789062 100.914062 170.1875 98.566406 170.1875 C 96.222656 170.1875 95.046875 168.789062 93.007812 166.117188 C 87.25 157.1875 76.953125 157.160156 71.175781 166.117188 C 67.609375 171.546875 63.617188 171.546875 60.050781 166.117188 C 57.886719 163.277344 54.921875 159.394531 49.136719 159.394531 C 44.753906 159.457031 44.671875 166.050781 49.136719 166.128906 C 51.480469 166.128906 52.65625 167.527344 54.699219 170.199219 C 56.863281 173.039062 59.828125 176.921875 65.613281 176.921875 C 71.398438 176.921875 74.363281 173.039062 76.527344 170.199219 C 78.570312 167.527344 79.746094 166.128906 82.089844 166.128906 C 84.433594 166.128906 85.609375 167.527344 87.652344 170.199219 C 89.816406 173.039062 92.78125 176.921875 98.566406 176.921875 C 104.355469 176.921875 107.320312 173.039062 109.484375 170.203125 C 111.53125 167.527344 112.703125 166.128906 115.050781 166.128906 C 117.394531 166.128906 118.566406 167.527344 120.609375 170.199219 C 122.773438 173.039062 125.738281 176.921875 131.523438 176.921875 C 137.3125 176.921875 140.277344 173.039062 142.445312 170.199219 C 146.015625 164.765625 150.015625 164.773438 153.585938 170.203125 C 159.324219 179.113281 169.65625 179.160156 175.433594 170.203125 C 177.480469 167.527344 178.65625 166.128906 181.007812 166.128906 C 185.386719 166.070312 185.472656 159.472656 181.007812 159.394531 C 175.21875 159.394531 172.25 163.277344 170.082031 166.113281 Z M 170.082031 166.113281 " fill-opacity="1" fill-rule="nonzero"/><path fill="#3963ac" d="M 204.695312 187.6875 C 197.730469 187.6875 194.082031 191.203125 191.148438 194.023438 C 188.457031 196.613281 186.519531 198.480469 182.269531 198.480469 C 178.019531 198.480469 176.078125 196.613281 173.390625 194.023438 C 170.457031 191.203125 166.808594 187.6875 159.84375 187.6875 C 152.882812 187.691406 149.234375 191.203125 146.300781 194.027344 C 143.617188 196.613281 141.675781 198.484375 137.433594 198.484375 C 133.195312 198.484375 131.257812 196.617188 128.574219 194.03125 C 125.644531 191.207031 122 187.691406 115.042969 187.691406 C 108.082031 187.691406 104.4375 191.207031 101.503906 194.03125 C 98.820312 196.617188 96.882812 198.484375 92.640625 198.484375 C 88.402344 198.484375 86.460938 196.617188 83.777344 194.03125 C 80.847656 191.207031 77.199219 187.691406 70.242188 187.691406 C 63.285156 187.695312 59.640625 191.207031 56.710938 194.03125 C 54.027344 196.617188 52.085938 198.488281 47.847656 198.488281 C 43.605469 198.488281 41.667969 196.617188 38.984375 194.035156 C 36.054688 191.210938 32.40625 187.695312 25.449219 187.695312 C 21.089844 187.753906 20.96875 194.347656 25.449219 194.429688 C 29.691406 194.429688 31.628906 196.296875 34.3125 198.882812 C 41.597656 207.3125 54.160156 207.25 61.382812 198.882812 C 66.429688 192.945312 74.070312 192.953125 79.105469 198.878906 C 86.453125 207.308594 98.859375 207.28125 106.175781 198.878906 C 108.859375 196.292969 110.800781 194.425781 115.042969 194.425781 C 119.28125 194.425781 121.21875 196.292969 123.902344 198.878906 C 126.832031 201.703125 130.476562 205.21875 137.433594 205.21875 C 144.394531 205.214844 148.042969 201.703125 150.976562 198.878906 C 153.660156 196.292969 155.601562 194.421875 159.84375 194.421875 C 164.09375 194.421875 166.035156 196.289062 168.71875 198.878906 C 171.65625 201.699219 175.304688 205.214844 182.269531 205.214844 C 189.234375 205.214844 192.882812 201.699219 195.816406 198.878906 C 198.503906 196.289062 200.445312 194.421875 204.695312 194.421875 C 209.050781 194.371094 209.175781 187.765625 204.695312 187.6875 Z M 204.695312 187.6875 " fill-opacity="1" fill-rule="nonzero"/><g clip-path="url(#f5a4a3cfe5)"><path fill="#3963ac" d="M 28.527344 104.796875 C 35.628906 104.796875 41.457031 99.003906 41.457031 91.867188 C 41.488281 91.363281 41.449219 34.515625 41.457031 30.648438 C 41.457031 23.511719 35.628906 17.71875 28.527344 17.71875 L 22.566406 17.71875 C 18.863281 17.71875 15.832031 20.714844 15.832031 24.453125 L 15.832031 98.0625 C 15.832031 101.765625 18.863281 104.796875 22.566406 104.796875 Z M 28.527344 104.796875 " fill-opacity="1" fill-rule="nonzero"/></g><path fill="#3963ac" d="M 82.167969 31.558594 C 82.167969 31.558594 48.191406 31.558594 48.191406 31.558594 C 48.191406 31.558594 48.191406 88.316406 48.191406 90.921875 C 48.191406 90.921875 82.167969 90.921875 82.167969 90.921875 C 82.167969 90.921875 82.164062 34.167969 82.167969 31.558594 Z M 82.167969 31.558594 " fill-opacity="1" fill-rule="nonzero"/><path fill="#3963ac" d="M 96.679688 98.5 L 103.28125 98.5 C 107.453125 98.5 110.890625 95.167969 111.058594 91.058594 C 111.058594 91.058594 111.050781 35.722656 111.058594 31.792969 C 111.058594 27.515625 107.554688 24.015625 103.28125 24.015625 L 96.679688 24.015625 C 92.46875 24.015625 89.035156 27.382812 88.902344 31.558594 L 88.902344 90.921875 C 89 95.097656 92.46875 98.5 96.679688 98.5 Z M 96.679688 98.5 " fill-opacity="1" fill-rule="nonzero"/><path fill="#3963ac" d="M 131.09375 114.15625 L 131.09375 130.523438 C 135.476562 134.328125 136.855469 137.800781 141.699219 132.578125 C 149.003906 123.851562 165.558594 120.574219 175.945312 130.589844 C 175.945312 130.589844 175.945312 109.375 175.945312 109.375 C 175.945312 75.199219 150.65625 46.8125 117.792969 41.929688 C 117.792969 41.929688 117.789062 89.328125 117.792969 90.722656 C 117.792969 91.496094 117.726562 92.269531 117.589844 93.011719 C 125.570312 96.714844 131.09375 104.796875 131.09375 114.15625 Z M 159.277344 112.742188 C 157.425781 112.742188 155.910156 111.226562 155.910156 109.375 C 155.910156 97.859375 151.769531 86.714844 144.226562 77.960938 C 141.398438 74.621094 146.410156 70.238281 149.34375 73.582031 C 157.929688 83.515625 162.644531 96.242188 162.644531 109.375 C 162.644531 111.226562 161.128906 112.742188 159.277344 112.742188 Z M 159.277344 112.742188 " fill-opacity="1" fill-rule="nonzero"/></svg>